STARTFONT 2.1
FONT lucm.genpunc.9
SIZE 15 72 72
FONTBOUNDINGBOX 16 15 0 -2
STARTPROPERTIES 4
FONT_DESCENT 2
FONT_ASCENT 13
DEFAULT_CHAR 0
COPYRIGHT "Copyright (C) 1985 Bigelow & Holmes Inc. All rights reserved."
ENDPROPERTIES
CHARS 55
STARTCHAR ch-0
ENCODING 0
SWIDTH 600 0
DWIDTH 9 0
BBX 9 15 0 -2
BITMAP
0000
0000
0000
0000
0000
0000
0000
0000
0000
0000
0000
0000
0000
0000
0000
ENDCHAR
STARTCHAR ch-1
ENCODING 1
SWIDTH 800 0
DWIDTH 12 0
BBX 12 15 0 -2
BITMAP
0000
0000
0000
0000
0000
0000
0000
0000
0000
0000
0000
0000
0000
0000
0000
ENDCHAR
STARTCHAR ch-2
ENCODING 2
SWIDTH 600 0
DWIDTH 9 0
BBX 9 15 0 -2
BITMAP
0000
0000
0000
0000
0000
0000
0000
0000
0000
0000
0000
0000
0000
0000
0000
ENDCHAR
STARTCHAR ch-3
ENCODING 3
SWIDTH 800 0
DWIDTH 12 0
BBX 12 15 0 -2
BITMAP
0000
0000
0000
0000
0000
0000
0000
0000
0000
0000
0000
0000
0000
0000
0000
ENDCHAR
STARTCHAR ch-4
ENCODING 4
SWIDTH 266 0
DWIDTH 4 0
BBX 4 15 0 -2
BITMAP
0000
0000
0000
0000
0000
0000
0000
0000
0000
0000
0000
0000
0000
0000
0000
ENDCHAR
STARTCHAR ch-5
ENCODING 5
SWIDTH 200 0
DWIDTH 3 0
BBX 3 15 0 -2
BITMAP
0000
0000
0000
0000
0000
0000
0000
0000
0000
0000
0000
0000
0000
0000
0000
ENDCHAR
STARTCHAR ch-6
ENCODING 6
SWIDTH 133 0
DWIDTH 2 0
BBX 2 15 0 -2
BITMAP
0000
0000
0000
0000
0000
0000
0000
0000
0000
0000
0000
0000
0000
0000
0000
ENDCHAR
STARTCHAR ch-7
ENCODING 7
SWIDTH 533 0
DWIDTH 8 0
BBX 8 15 0 -2
BITMAP
0000
0000
0000
0000
0000
0000
0000
0000
0000
0000
0000
0000
0000
0000
0000
ENDCHAR
STARTCHAR ch-8
ENCODING 8
SWIDTH 600 0
DWIDTH 9 0
BBX 9 15 0 -2
BITMAP
0000
0000
0000
0000
0000
0000
0000
0000
0000
0000
0000
0000
0000
0000
0000
ENDCHAR
STARTCHAR ch-9
ENCODING 9
SWIDTH 266 0
DWIDTH 4 0
BBX 4 15 0 -2
BITMAP
0000
0000
0000
0000
0000
0000
0000
0000
0000
0000
0000
0000
0000
0000
0000
ENDCHAR
STARTCHAR ch-10
ENCODING 10
SWIDTH 133 0
DWIDTH 2 0
BBX 2 15 0 -2
BITMAP
0000
0000
0000
0000
0000
0000
0000
0000
0000
0000
0000
0000
0000
0000
0000
ENDCHAR
STARTCHAR ch-16
ENCODING 16
SWIDTH 600 0
DWIDTH 9 0
BBX 9 15 0 -2
BITMAP
0000
0000
0000
0000
0000
0000
0000
0000
7f00
0000
0000
0000
0000
0000
0000
ENDCHAR
STARTCHAR ch-17
ENCODING 17
SWIDTH 600 0
DWIDTH 9 0
BBX 9 15 0 -2
BITMAP
0000
0000
0000
0000
0000
0000
0000
0000
7f00
0000
0000
0000
0000
0000
0000
ENDCHAR
STARTCHAR ch-18
ENCODING 18
SWIDTH 533 0
DWIDTH 8 0
BBX 8 15 0 -2
BITMAP
0000
0000
0000
0000
0000
0000
0000
0000
7e00
0000
0000
0000
0000
0000
0000
ENDCHAR
STARTCHAR ch-19
ENCODING 19
SWIDTH 666 0
DWIDTH 10 0
BBX 10 15 0 -2
BITMAP
0000
0000
0000
0000
0000
0000
0000
0000
7f80
0000
0000
0000
0000
0000
0000
ENDCHAR
STARTCHAR ch-20
ENCODING 20
SWIDTH 866 0
DWIDTH 13 0
BBX 13 15 0 -2
BITMAP
0000
0000
0000
0000
0000
0000
0000
0000
7ff0
0000
0000
0000
0000
0000
0000
ENDCHAR
STARTCHAR ch-21
ENCODING 21
SWIDTH 1066 0
DWIDTH 16 0
BBX 16 15 0 -2
BITMAP
0000
0000
0000
0000
0000
0000
0000
0000
7ffe
0000
0000
0000
0000
0000
0000
ENDCHAR
STARTCHAR ch-22
ENCODING 22
SWIDTH 600 0
DWIDTH 9 0
BBX 9 15 0 -2
BITMAP
0000
0000
3600
3600
3600
3600
3600
3600
3600
3600
3600
3600
3600
3600
0000
ENDCHAR
STARTCHAR ch-23
ENCODING 23
SWIDTH 600 0
DWIDTH 9 0
BBX 9 15 0 -2
BITMAP
0000
0000
0000
0000
0000
0000
0000
0000
0000
0000
0000
ff80
0000
ff80
0000
ENDCHAR
STARTCHAR ch-24
ENCODING 24
SWIDTH 600 0
DWIDTH 9 0
BBX 9 15 0 -2
BITMAP
0000
0000
0c00
1000
1c00
1c00
0000
0000
0000
0000
0000
0000
0000
0000
0000
ENDCHAR
STARTCHAR ch-25
ENCODING 25
SWIDTH 600 0
DWIDTH 9 0
BBX 9 15 0 -2
BITMAP
0000
0000
1c00
1c00
0400
1800
0000
0000
0000
0000
0000
0000
0000
0000
0000
ENDCHAR
STARTCHAR ch-26
ENCODING 26
SWIDTH 600 0
DWIDTH 9 0
BBX 9 15 0 -2
BITMAP
0000
0000
0000
0000
0000
0000
0000
0000
0000
0000
1c00
1c00
0400
1800
0000
ENDCHAR
STARTCHAR ch-27
ENCODING 27
SWIDTH 600 0
DWIDTH 9 0
BBX 9 15 0 -2
BITMAP
0000
0000
1c00
1c00
1000
0c00
0000
0000
0000
0000
0000
0000
0000
0000
0000
ENDCHAR
STARTCHAR ch-28
ENCODING 28
SWIDTH 600 0
DWIDTH 9 0
BBX 9 15 0 -2
BITMAP
0000
0000
3300
4400
7700
7700
0000
0000
0000
0000
0000
0000
0000
0000
0000
ENDCHAR
STARTCHAR ch-29
ENCODING 29
SWIDTH 600 0
DWIDTH 9 0
BBX 9 15 0 -2
BITMAP
0000
0000
7700
7700
1100
6600
0000
0000
0000
0000
0000
0000
0000
0000
0000
ENDCHAR
STARTCHAR ch-30
ENCODING 30
SWIDTH 600 0
DWIDTH 9 0
BBX 9 15 0 -2
BITMAP
0000
0000
0000
0000
0000
0000
0000
0000
0000
0000
7700
7700
1100
6600
0000
ENDCHAR
STARTCHAR ch-31
ENCODING 31
SWIDTH 600 0
DWIDTH 9 0
BBX 9 15 0 -2
BITMAP
0000
0000
7700
7700
4400
3300
0000
0000
0000
0000
0000
0000
0000
0000
0000
ENDCHAR
STARTCHAR ch-32
ENCODING 32
SWIDTH 600 0
DWIDTH 9 0
BBX 9 15 0 -2
BITMAP
0000
0800
0800
4900
7f00
0800
1c00
0800
0800
0800
0800
0800
0000
0000
0000
ENDCHAR
STARTCHAR ch-33
ENCODING 33
SWIDTH 600 0
DWIDTH 9 0
BBX 9 15 0 -2
BITMAP
0000
0800
0800
4900
7f00
0800
1c00
0800
7f00
4900
0800
0800
0000
0000
0000
ENDCHAR
STARTCHAR ch-34
ENCODING 34
SWIDTH 600 0
DWIDTH 9 0
BBX 9 15 0 -2
BITMAP
0000
0000
0000
0000
0000
3c00
7e00
7e00
7e00
3c00
0000
0000
0000
0000
0000
ENDCHAR
STARTCHAR ch-35
ENCODING 35
SWIDTH 600 0
DWIDTH 9 0
BBX 9 15 0 -2
BITMAP
0000
0000
0000
4000
6000
7000
7800
7c00
7800
7000
6000
4000
0000
0000
0000
ENDCHAR
STARTCHAR ch-36
ENCODING 36
SWIDTH 600 0
DWIDTH 9 0
BBX 9 15 0 -2
BITMAP
0000
0000
0000
0000
0000
0000
0000
1800
1800
0000
0000
0000
0000
0000
0000
ENDCHAR
STARTCHAR ch-37
ENCODING 37
SWIDTH 600 0
DWIDTH 9 0
BBX 9 15 0 -2
BITMAP
0000
0000
0000
0000
0000
0000
0000
6600
6600
0000
0000
0000
0000
0000
0000
ENDCHAR
STARTCHAR ch-38
ENCODING 38
SWIDTH 600 0
DWIDTH 9 0
BBX 9 15 0 -2
BITMAP
0000
0000
0000
0000
0000
0000
0000
db00
db00
0000
0000
0000
0000
0000
0000
ENDCHAR
STARTCHAR ch-39
ENCODING 39
SWIDTH 600 0
DWIDTH 9 0
BBX 9 15 0 -2
BITMAP
0000
0000
0000
0000
0000
0000
0000
1800
1800
0000
0000
0000
0000
0000
0000
ENDCHAR
STARTCHAR ch-48
ENCODING 48
SWIDTH 733 0
DWIDTH 11 0
BBX 11 15 0 -2
BITMAP
0000
0000
0000
7000
d900
da00
7400
0800
1000
2d80
5b40
9b40
0d80
0000
0000
ENDCHAR
STARTCHAR ch-49
ENCODING 49
SWIDTH 933 0
DWIDTH 14 0
BBX 14 15 0 -2
BITMAP
0000
0000
0000
7000
d900
da00
7400
0800
1000
2db0
5b68
9b68
0db0
0000
0000
ENDCHAR
STARTCHAR ch-50
ENCODING 50
SWIDTH 600 0
DWIDTH 9 0
BBX 9 15 0 -2
BITMAP
0000
0000
0c00
1800
3000
0000
0000
0000
0000
0000
0000
0000
0000
0000
0000
ENDCHAR
STARTCHAR ch-51
ENCODING 51
SWIDTH 600 0
DWIDTH 9 0
BBX 9 15 0 -2
BITMAP
0000
0000
1b00
3600
6c00
0000
0000
0000
0000
0000
0000
0000
0000
0000
0000
ENDCHAR
STARTCHAR ch-52
ENCODING 52
SWIDTH 733 0
DWIDTH 11 0
BBX 11 15 0 -2
BITMAP
0000
0000
36c0
6d80
db00
0000
0000
0000
0000
0000
0000
0000
0000
0000
0000
ENDCHAR
STARTCHAR ch-53
ENCODING 53
SWIDTH 600 0
DWIDTH 9 0
BBX 9 15 0 -2
BITMAP
0000
0000
3000
1800
0c00
0000
0000
0000
0000
0000
0000
0000
0000
0000
0000
ENDCHAR
STARTCHAR ch-54
ENCODING 54
SWIDTH 600 0
DWIDTH 9 0
BBX 9 15 0 -2
BITMAP
0000
0000
6c00
3600
1b00
0000
0000
0000
0000
0000
0000
0000
0000
0000
0000
ENDCHAR
STARTCHAR ch-55
ENCODING 55
SWIDTH 733 0
DWIDTH 11 0
BBX 11 15 0 -2
BITMAP
0000
0000
db00
6d80
36c0
0000
0000
0000
0000
0000
0000
0000
0000
0000
0000
ENDCHAR
STARTCHAR ch-56
ENCODING 56
SWIDTH 600 0
DWIDTH 9 0
BBX 9 15 0 -2
BITMAP
0000
0000
0000
0000
0000
0000
0000
0800
1c00
1400
3600
2200
2200
0000
0000
ENDCHAR
STARTCHAR ch-57
ENCODING 57
SWIDTH 600 0
DWIDTH 9 0
BBX 9 15 0 -2
BITMAP
0000
0000
0000
0000
0000
0000
0c00
1800
3000
1800
0c00
0000
0000
0000
0000
ENDCHAR
STARTCHAR ch-58
ENCODING 58
SWIDTH 600 0
DWIDTH 9 0
BBX 9 15 0 -2
BITMAP
0000
0000
0000
0000
0000
0000
3000
1800
0c00
1800
3000
0000
0000
0000
0000
ENDCHAR
STARTCHAR ch-59
ENCODING 59
SWIDTH 733 0
DWIDTH 11 0
BBX 11 15 0 -2
BITMAP
0000
0000
0000
0000
4c80
2d00
1200
ccc0
ccc0
1200
2d00
4c80
0000
0000
0000
ENDCHAR
STARTCHAR ch-60
ENCODING 60
SWIDTH 600 0
DWIDTH 9 0
BBX 9 15 0 -2
BITMAP
0000
0000
0000
3600
3600
3600
3600
3600
3600
1200
0000
3600
3600
0000
0000
ENDCHAR
STARTCHAR ch-61
ENCODING 61
SWIDTH 600 0
DWIDTH 9 0
BBX 9 15 0 -2
BITMAP
0000
0000
1800
3e00
7b00
1b00
1b00
1e00
1800
1800
0000
1800
1800
0000
0000
ENDCHAR
STARTCHAR ch-62
ENCODING 62
SWIDTH 600 0
DWIDTH 9 0
BBX 9 15 0 -2
BITMAP
0000
ff80
0000
0000
0000
0000
0000
0000
0000
0000
0000
0000
0000
0000
0000
ENDCHAR
STARTCHAR ch-64
ENCODING 64
SWIDTH 600 0
DWIDTH 9 0
BBX 9 15 0 -2
BITMAP
0000
0000
3e00
7f00
4100
0000
0000
0000
0000
0000
0000
0000
0000
0000
0000
ENDCHAR
STARTCHAR ch-65
ENCODING 65
SWIDTH 600 0
DWIDTH 9 0
BBX 9 15 0 -2
BITMAP
0000
0000
0000
0000
0400
0400
0c00
0800
1c00
1400
3600
2200
2200
0000
0000
ENDCHAR
STARTCHAR ch-66
ENCODING 66
SWIDTH 800 0
DWIDTH 12 0
BBX 12 15 0 -2
BITMAP
0000
0000
0000
0400
1500
0e00
1500
2480
aaa0
71c0
aaa0
2080
0000
0000
0000
ENDCHAR
STARTCHAR ch-67
ENCODING 67
SWIDTH 600 0
DWIDTH 9 0
BBX 9 15 0 -2
BITMAP
0000
0000
0000
0000
0000
0000
ff00
ff00
ff00
ff00
0000
0000
0000
0000
0000
ENDCHAR
STARTCHAR ch-68
ENCODING 68
SWIDTH 600 0
DWIDTH 9 0
BBX 9 15 0 -2
BITMAP
0000
0000
0300
0300
0600
0600
0c00
0c00
1800
1800
3000
3000
6000
6000
0000
ENDCHAR
ENDFONT
